<svg width="22" height="22" viewBox="0 0 22 22" fill="none" xmlns="http://www.w3.org/2000/svg">
<path fill-rule="evenodd" clip-rule="evenodd" d="M3.39829 10.2457C3.03221 10.2961 2.75006 10.6146 2.75006 10.9999C2.75006 11.4203 3.08585 11.761 3.50006 11.761L16.6833 11.761L11.921 16.5746L11.8482 16.6598C11.6298 16.9573 11.6531 17.3802 11.9188 17.651C12.2111 17.9488 12.686 17.9498 12.9795 17.6532L19.0188 11.5496C19.0548 11.5146 19.0873 11.4761 19.1158 11.4345C19.3203 11.1373 19.2915 10.7249 19.0294 10.4601L12.9794 4.34677L12.8952 4.27326C12.6011 4.05281 12.1845 4.07829 11.9188 4.34909C11.6265 4.64697 11.6276 5.12888 11.9211 5.42548L16.6845 10.2388L3.50006 10.2388L3.39829 10.2457Z" fill="#0B0707"/>
</svg>
