<svg width="44" height="44" viewBox="0 0 44 44" fill="none" xmlns="http://www.w3.org/2000/svg">
<path fill-rule="evenodd" clip-rule="evenodd" d="M13.9428 28.6025C13.6384 29.0041 13.6734 29.5832 14.045 29.9548C14.4503 30.3601 15.1027 30.3649 15.5021 29.9655L28.2138 17.2537L28.2632 26.4871L28.2752 26.6394C28.3514 27.1369 28.7817 27.5222 29.299 27.5271C29.8681 27.5325 30.3269 27.0755 30.3239 26.5065L30.2619 14.798C30.2629 14.7296 30.2571 14.661 30.2445 14.5933C30.1551 14.1096 29.7297 13.7398 29.2217 13.7371L17.4933 13.676L17.3412 13.6864C16.8451 13.7574 16.4679 14.1837 16.4728 14.701C16.4783 15.27 16.9439 15.7337 17.5129 15.7367L26.7472 15.7847L14.0342 28.4977L13.9428 28.6025Z" fill="#F5F5F5"/>
</svg>
