<svg width="1440" height="126" viewBox="0 0 1440 126" fill="none" xmlns="http://www.w3.org/2000/svg">
<path d="M99.3406 56.88C108.389 64.8 112.913 74.58 112.913 86.22C112.913 97.26 108.885 106.68 100.828 114.48C92.8952 122.16 83.2271 126 71.8237 126H-115.774C-118.625 126 -121.042 125.04 -123.025 123.12C-125.008 121.08 -126 118.68 -126 115.92V9.9C-126 7.14 -125.008 4.8 -123.025 2.88001C-120.918 0.960002 -118.501 0 -115.774 0H75.1704C84.7145 0 92.8332 3.24 99.5265 9.72C106.22 16.2 109.566 24.06 109.566 33.3C109.566 42.42 106.158 50.28 99.3406 56.88ZM88.9288 33.3C88.9288 30.9 88.3091 28.68 87.0696 26.64C85.8301 24.6 84.1568 22.98 82.0496 21.78C79.9425 20.58 77.6494 19.98 75.1704 19.98H-105.362V46.44H71.8237C72.6914 46.44 73.8069 46.5 75.1704 46.62V46.44C79.0128 46.44 82.2355 45.18 84.8385 42.66C87.5654 40.02 88.9288 36.9 88.9288 33.3ZM71.8237 106.02C77.5254 106.02 82.3595 104.1 86.3259 100.26C90.2923 96.42 92.2755 91.8 92.2755 86.4C92.2755 80.88 90.2923 76.2 86.3259 72.36C82.3595 68.4 77.5254 66.42 71.8237 66.42H-105.362V106.02H71.8237Z" fill="#D7D7D7"/>
<path d="M332.786 66.42H155.6V106.02H332.786C334.646 106.02 336.381 106.5 337.992 107.46C339.604 108.3 340.843 109.5 341.711 111.06C342.702 112.5 343.198 114.18 343.198 116.1C343.198 118.74 342.145 121.08 340.037 123.12C338.054 125.04 335.637 126 332.786 126H145.188C142.338 126 139.921 125.04 137.937 123.12C135.954 121.08 134.963 118.74 134.963 116.1V9.9C134.963 7.26 135.954 4.98 137.937 3.06C140.045 1.02 142.462 0 145.188 0H332.786C335.637 0 338.054 0.960002 340.037 2.88001C342.145 4.8 343.198 7.14 343.198 9.9C343.198 12.66 342.145 15.06 340.037 17.1C338.054 19.02 335.637 19.98 332.786 19.98H155.6V46.44H332.786C334.646 46.44 336.381 46.92 337.992 47.88C339.604 48.72 340.843 49.92 341.711 51.48C342.702 53.04 343.198 54.72 343.198 56.52C343.198 59.28 342.145 61.62 340.037 63.54C338.054 65.46 335.637 66.42 332.786 66.42Z" fill="#D7D7D7"/>
<path d="M572.75 117.72C572.626 117.84 572.502 118.14 572.378 118.62C572.254 118.98 572.192 119.28 572.192 119.52C572.068 119.76 571.882 120.12 571.634 120.6C571.634 120.6 571.634 120.66 571.634 120.78C571.51 120.9 571.448 120.96 571.448 120.96C571.448 121.08 571.386 121.2 571.262 121.32C571.138 121.56 570.89 121.86 570.518 122.22C570.271 122.58 570.085 122.82 569.961 122.94C569.837 123.06 569.589 123.3 569.217 123.66C568.969 123.9 568.721 124.08 568.473 124.2C568.349 124.32 568.039 124.5 567.544 124.74C567.172 124.86 566.924 124.98 566.8 125.1C566.676 125.22 566.366 125.34 565.87 125.46C565.375 125.58 565.065 125.64 564.941 125.64C564.693 125.76 564.383 125.82 564.011 125.82C563.515 125.94 563.143 126 562.896 126C562.896 126 562.834 126 562.71 126C562.586 126 562.524 126 562.524 126C562.524 126 562.4 126 562.152 126C562.028 126 561.966 126 561.966 126C561.47 125.88 561.098 125.82 560.85 125.82C560.603 125.82 560.293 125.76 559.921 125.64C559.425 125.52 559.115 125.4 558.991 125.28C558.619 125.16 558.247 125.04 557.876 124.92C557.876 124.92 557.814 124.92 557.69 124.92C557.566 124.8 557.442 124.68 557.318 124.56L385.338 27.36V116.1C385.338 118.86 384.284 121.2 382.177 123.12C380.194 125.04 377.777 126 374.926 126C372.075 126 369.658 125.04 367.675 123.12C365.692 121.2 364.7 118.86 364.7 116.1V10.08C364.7 9.96 364.7 9.84 364.7 9.72C364.7 9.6 364.7 9.48001 364.7 9.36001C364.824 9 364.886 8.64 364.886 8.28C364.886 8.04 364.948 7.74 365.072 7.38C365.196 7.02 365.32 6.72 365.444 6.48C365.568 6.24001 365.692 5.88001 365.816 5.4C365.816 5.4 365.878 5.34001 366.001 5.22001C366.001 5.1 366.063 5.04 366.187 5.04V4.86L366.373 4.68C366.497 4.44 366.683 4.14 366.931 3.78C367.303 3.42 367.489 3.18 367.489 3.06C367.613 2.94 367.861 2.76 368.233 2.52C368.604 2.16 368.852 1.98001 368.976 1.98001C369.1 1.86 369.348 1.68 369.72 1.44C370.216 1.20001 370.588 1.02 370.835 0.899999C370.959 0.780001 371.269 0.660002 371.765 0.540004C372.261 0.420005 372.571 0.360006 372.695 0.360006C372.819 0.24 373.129 0.179998 373.624 0.179998C374.12 0.0599992 374.492 0 374.74 0C374.74 0 374.802 0 374.926 0C375.05 0 375.174 0 375.298 0C375.422 0 375.546 0 375.67 0C376.041 0.119998 376.413 0.179998 376.785 0.179998C376.909 0.179998 377.219 0.24 377.715 0.360006C378.087 0.480005 378.396 0.600003 378.644 0.720001C378.892 0.84 379.264 0.960002 379.76 1.08001C379.76 1.08001 379.822 1.14001 379.946 1.26001C380.07 1.26001 380.132 1.32 380.132 1.44L552.298 98.64V9.9C552.298 7.14 553.289 4.8 555.273 2.88001C557.256 0.960002 559.673 0 562.524 0C565.375 0 567.792 0.960002 569.775 2.88001C571.882 4.8 572.936 7.14 572.936 9.9V116.1C572.936 116.1 572.874 116.16 572.75 116.28C572.75 116.4 572.75 116.52 572.75 116.64C572.75 117 572.75 117.36 572.75 117.72Z" fill="#D7D7D7"/>
<path d="M809.32 66.42H632.134V106.02H809.32C811.179 106.02 812.914 106.5 814.526 107.46C816.137 108.3 817.376 109.5 818.244 111.06C819.236 112.5 819.731 114.18 819.731 116.1C819.731 118.74 818.678 121.08 816.571 123.12C814.588 125.04 812.171 126 809.32 126H621.722C618.871 126 616.454 125.04 614.471 123.12C612.488 121.08 611.496 118.74 611.496 116.1V9.9C611.496 7.26 612.488 4.98 614.471 3.06C616.578 1.02 618.995 0 621.722 0H809.32C812.171 0 814.588 0.960002 816.571 2.88001C818.678 4.8 819.731 7.14 819.731 9.9C819.731 12.66 818.678 15.06 816.571 17.1C814.588 19.02 812.171 19.98 809.32 19.98H632.134V46.44H809.32C811.179 46.44 812.914 46.92 814.526 47.88C816.137 48.72 817.376 49.92 818.244 51.48C819.236 53.04 819.731 54.72 819.731 56.52C819.731 59.28 818.678 61.62 816.571 63.54C814.588 65.46 812.171 66.42 809.32 66.42Z" fill="#D7D7D7"/>
<path d="M1038.87 46.44C1041.72 46.44 1044.14 47.46 1046.12 49.5C1048.23 51.42 1049.28 53.76 1049.28 56.52C1049.28 57.6 1049.1 58.68 1048.73 59.76C1048.35 60.72 1047.86 61.62 1047.24 62.46C1046.62 63.18 1045.87 63.9 1045.01 64.62C1044.14 65.22 1043.15 65.7 1042.03 66.06C1041.04 66.3 1039.99 66.42 1038.87 66.42H861.685V116.1C861.685 118.74 860.631 121.08 858.524 123.12C856.541 125.04 854.124 126 851.273 126C848.422 126 846.005 125.04 844.022 123.12C842.039 121.08 841.047 118.74 841.047 116.1V9.9C841.047 7.26 842.039 4.98 844.022 3.06C846.129 1.02 848.546 0 851.273 0H1038.87C1041.72 0 1044.14 0.960002 1046.12 2.88001C1048.23 4.8 1049.28 7.14 1049.28 9.9C1049.28 12.66 1048.23 15.06 1046.12 17.1C1044.14 19.02 1041.72 19.98 1038.87 19.98H861.685V46.44H1038.87Z" fill="#D7D7D7"/>
<path d="M1067.04 2.88001C1069.02 0.960002 1071.44 0 1074.29 0C1077.14 0 1079.56 0.960002 1081.54 2.88001C1083.65 4.8 1084.7 7.14 1084.7 9.9V116.1C1084.7 117.9 1084.2 119.58 1083.21 121.14C1082.35 122.58 1081.11 123.78 1079.49 124.74C1078.01 125.58 1076.27 126 1074.29 126C1071.44 126 1069.02 125.04 1067.04 123.12C1065.05 121.08 1064.06 118.74 1064.06 116.1V9.9C1064.06 7.14 1065.05 4.8 1067.04 2.88001Z" fill="#D7D7D7"/>
<path d="M1294.31 0C1297.16 0 1299.58 0.960002 1301.56 2.88001C1303.67 4.8 1304.72 7.14 1304.72 9.9C1304.72 12.66 1303.67 15.06 1301.56 17.1C1299.58 19.02 1297.16 19.98 1294.31 19.98H1210.83V116.1C1210.83 118.86 1209.84 121.2 1207.85 123.12C1205.87 125.04 1203.45 126 1200.6 126C1197.75 126 1195.27 125.04 1193.17 123.12C1191.18 121.2 1190.19 118.86 1190.19 116.1V19.98H1106.71C1103.86 19.98 1101.44 19.02 1099.46 17.1C1097.48 15.06 1096.49 12.66 1096.49 9.9C1096.49 7.14 1097.48 4.8 1099.46 2.88001C1101.44 0.960002 1103.86 0 1106.71 0H1294.31Z" fill="#D7D7D7"/>
<path d="M1531.12 53.1C1541.16 53.58 1549.65 57.36 1556.59 64.44C1563.53 71.4 1567 79.74 1567 89.46C1567 99.54 1563.28 108.18 1555.84 115.38C1548.53 122.46 1539.67 126 1529.26 126H1329.76C1327.9 126 1326.17 125.58 1324.55 124.74C1322.94 123.78 1321.7 122.58 1320.84 121.14C1319.97 119.58 1319.53 117.9 1319.53 116.1C1319.53 113.34 1320.53 111 1322.51 109.08C1324.49 107.04 1326.91 106.02 1329.76 106.02H1529.26C1533.97 106.02 1538 104.4 1541.34 101.16C1544.69 97.92 1546.36 94.02 1546.36 89.46C1546.36 84.9 1544.69 81 1541.34 77.76C1538 74.52 1533.97 72.9 1529.26 72.9H1341.85C1332.3 72.9 1324.18 69.66 1317.49 63.18C1310.8 56.7 1307.45 48.9 1307.45 39.78C1307.45 30.54 1310.8 22.68 1317.49 16.2C1324.18 9.72 1332.3 6.48 1341.85 6.48H1543.02C1545.87 6.48 1548.28 7.5 1550.27 9.54C1552.25 11.46 1553.24 13.8 1553.24 16.56C1553.24 19.32 1552.25 21.66 1550.27 23.58C1548.28 25.5 1545.87 26.46 1543.02 26.46H1341.85C1338 26.46 1334.72 27.78 1331.99 30.42C1329.39 32.94 1328.09 36.06 1328.09 39.78C1328.09 43.38 1329.39 46.5 1331.99 49.14C1334.72 51.78 1338 53.1 1341.85 53.1H1531.12Z" fill="#D7D7D7"/>
</svg>
