<svg width="18" height="17" viewBox="0 0 18 17" fill="none" xmlns="http://www.w3.org/2000/svg">
<path d="M15.75 2.125H2.25C1.00744 2.125 0 3.07647 0 4.25V12.75C0 13.9235 1.00744 14.875 2.25 14.875H15.75C16.9926 14.875 18 13.9235 18 12.75V4.25C18 3.07647 16.9926 2.125 15.75 2.125ZM12.0465 7.79546L16.8091 3.94078C16.8421 4.04039 16.875 4.14 16.875 4.25V12.75C16.875 12.8237 16.8453 12.8891 16.83 12.9585L12.0465 7.79546ZM15.75 3.1875C15.8247 3.1875 15.8906 3.21449 15.9609 3.22797L9 8.86318L2.03906 3.22797C2.10938 3.21449 2.17529 3.1875 2.25 3.1875H15.75ZM1.16951 12.9575C1.15411 12.888 1.125 12.8237 1.125 12.75V4.25C1.125 4.14 1.1585 4.04039 1.19148 3.94078L5.95241 7.79443L1.16951 12.9575ZM2.25 13.8125C2.1363 13.8125 2.03302 13.7814 1.9292 13.7513L6.80713 8.48649L8.63416 9.96505C8.73907 10.0512 8.86982 10.0938 9 10.0938C9.13018 10.0938 9.26093 10.0512 9.36584 9.96509L11.1929 8.48652L16.0708 13.7513C15.9675 13.7814 15.8643 13.8125 15.75 13.8125H2.25Z" fill="#A3A3A3"/>
</svg>
