<svg width="22" height="25" viewBox="0 0 22 25" fill="none" xmlns="http://www.w3.org/2000/svg">
<path d="M18.1183 8.14414C18.1183 3.19727 15.3257 0 11 0C6.67422 0 3.88159 3.19727 3.88159 8.14414C3.88159 12.2676 9.4885 20.5453 10.1292 21.4715L10.9123 22.6152C7.63225 22.625 4.98709 23.1543 4.98709 23.807C4.98709 24.4656 7.68072 24.9996 11.0034 24.9996C14.3261 24.9996 17.0197 24.4656 17.0197 23.807C17.0197 23.1539 14.3715 22.6242 11.0883 22.6152L11.8762 21.4715C12.5111 20.5395 18.1183 12.2617 18.1183 8.14414ZM8.69478 8.13867C8.69478 6.73086 9.72672 5.58945 11 5.58945C12.2732 5.58945 13.3052 6.73086 13.3052 8.13867C13.3052 9.54648 12.2732 10.6879 11 10.6879C9.72672 10.6879 8.69478 9.54648 8.69478 8.13867Z" fill="#A3A3A3"/>
</svg>
