<?xml version="1.0" standalone="no"?>
<!DOCTYPE svg PUBLIC "-//W3C//DTD SVG 20010904//EN"
 "http://www.w3.org/TR/2001/REC-SVG-20010904/DTD/svg10.dtd">
<svg version="1.0" xmlns="http://www.w3.org/2000/svg"
 width="2481.000000pt" height="2363.000000pt" viewBox="0 0 2481.000000 2363.000000"
 preserveAspectRatio="xMidYMid meet">

<g transform="translate(0.000000,2363.000000) scale(0.100000,-0.100000)"
fill="#000000" stroke="none">
<path d="M13150 16605 c-51 -27 -55 -50 -55 -284 l0 -216 58 -3 57 -3 0 86 0
85 430 0 429 0 3 -82 3 -83 60 0 60 0 0 217 c0 204 -1 218 -21 245 -40 53 -34
53 -534 52 -376 0 -470 -2 -490 -14z m901 -95 c15 -9 19 -22 19 -70 l0 -60
-430 0 -430 0 0 53 c0 55 6 71 30 80 28 10 790 8 811 -3z"/>
<path d="M14280 16409 c0 -167 3 -218 15 -243 30 -62 16 -61 513 -64 303 -2
465 1 492 8 29 8 47 21 60 43 18 29 20 51 20 250 l0 217 -55 0 -55 0 0 -179
c0 -99 -4 -191 -10 -205 l-10 -26 -413 0 c-308 0 -416 3 -425 12 -9 9 -12 68
-12 205 l0 193 -60 0 -60 0 0 -211z"/>
<path d="M15472 16568 l3 -53 282 -3 283 -2 2 -203 3 -202 70 0 70 0 3 208 2
207 285 0 285 0 0 50 0 50 -646 0 -645 0 3 -52z"/>
<path d="M16905 16606 c-53 -23 -60 -50 -60 -245 0 -155 2 -180 18 -205 36
-55 47 -56 529 -55 478 0 495 2 532 52 19 26 21 41 21 207 0 166 -2 181 -21
207 -11 15 -32 34 -45 40 -36 19 -932 18 -974 -1z m919 -112 c12 -30 7 -259
-6 -272 -9 -9 -117 -12 -425 -12 -397 0 -413 1 -423 19 -11 21 -14 238 -4 265
5 14 53 16 429 16 376 0 424 -2 429 -16z"/>
<path d="M18030 16360 l0 -260 60 0 60 0 0 195 c0 107 3 195 8 195 4 0 156
-50 337 -112 l330 -112 318 112 c175 62 320 112 322 112 3 0 6 -87 7 -192 l3
-193 58 -3 57 -3 0 261 0 260 -59 0 c-50 0 -111 -18 -376 -110 -174 -60 -325
-110 -335 -110 -10 0 -163 50 -340 110 -278 95 -332 110 -386 110 l-64 0 0
-260z"/>
<path d="M19740 16605 c-51 -27 -55 -50 -55 -284 l0 -216 58 -3 57 -3 0 86 0
85 430 0 429 0 3 -82 3 -83 60 0 60 0 0 217 c0 204 -1 218 -21 245 -40 53 -34
53 -534 52 -376 0 -470 -2 -490 -14z m898 -91 c20 -6 22 -12 22 -70 l0 -64
-430 0 -430 0 0 53 c0 55 6 71 30 80 20 7 779 8 808 1z"/>
<path d="M21672 16514 l-263 -103 -247 95 c-136 53 -255 99 -265 102 -16 4
-18 -1 -15 -44 l3 -49 193 -75 c105 -41 192 -77 192 -80 0 -3 -76 -34 -168
-69 -234 -90 -222 -83 -222 -136 0 -25 3 -45 7 -45 4 0 123 45 265 101 l257
101 271 -105 271 -105 -3 50 -3 51 -197 76 c-109 42 -198 79 -198 82 0 3 90
41 200 84 l200 78 0 48 c0 27 -3 49 -7 48 -5 0 -126 -47 -271 -105z"/>
<path d="M4480 15125 c-15 -18 -59 -19 -114 -4 -22 6 -63 8 -97 4 -58 -7 -59
-7 -59 -39 0 -25 -11 -42 -50 -81 -41 -40 -50 -55 -50 -84 l0 -35 50 49 50 49
0 -63 c0 -61 -1 -64 -50 -120 -39 -45 -50 -65 -50 -91 l0 -34 50 49 50 49 0
-65 c0 -65 0 -65 -50 -114 -44 -43 -50 -54 -50 -90 l0 -40 50 52 50 52 0 -68
0 -67 -50 -49 c-42 -42 -50 -55 -50 -86 l0 -38 50 52 50 52 0 -51 0 -51 128
-6 c280 -14 491 -92 727 -267 l80 -60 80 80 c75 75 82 79 101 66 19 -14 36 0
305 270 l284 284 -23 22 -22 22 -68 -66 -67 -67 -33 27 -33 27 65 64 65 64
-26 21 -26 20 -61 -67 -61 -67 -35 30 -35 29 60 60 c57 58 58 61 40 76 -11 8
-22 15 -25 15 -3 0 -32 -27 -64 -59 l-59 -60 -31 21 c-17 12 -33 23 -35 24 -2
2 20 29 49 61 48 53 51 58 34 70 -28 21 -39 16 -87 -37 -25 -27 -50 -50 -56
-50 -10 0 -47 20 -70 37 -3 2 19 28 48 57 l53 54 -28 10 c-27 9 -33 6 -80 -40
l-51 -49 -36 17 c-21 10 -37 21 -37 26 0 5 18 28 40 52 l41 44 -32 7 c-27 6
-36 2 -74 -35 -42 -41 -44 -42 -79 -30 -20 6 -38 15 -40 19 -3 4 10 23 29 41
19 19 35 37 35 41 0 4 -12 10 -27 13 -22 6 -33 0 -68 -34 -39 -39 -42 -40 -76
-29 -52 18 -56 26 -26 57 15 16 24 31 20 35 -16 17 -59 5 -89 -24 -30 -29 -32
-30 -78 -18 l-47 12 27 28 28 29 -41 0 c-28 0 -46 -6 -59 -21 -16 -18 -26 -20
-68 -15 -57 6 -63 10 -46 31 11 13 8 15 -23 15 -19 0 -40 -7 -47 -15z"/>
<path d="M17620 15125 c-15 -18 -59 -19 -114 -4 -22 6 -63 8 -97 4 -58 -7 -59
-7 -59 -39 0 -25 -10 -42 -45 -76 -36 -36 -45 -51 -45 -79 l0 -35 45 44 45 44
0 -70 c0 -70 0 -70 -45 -114 -36 -36 -45 -51 -45 -79 l0 -35 45 44 45 44 0
-67 c0 -67 -1 -69 -45 -116 -35 -37 -45 -56 -45 -82 l0 -33 45 44 45 44 0 -65
c0 -64 -1 -66 -45 -109 -38 -38 -45 -50 -45 -84 l0 -40 45 44 45 44 0 -47 0
-47 73 0 c152 0 348 -38 486 -94 78 -32 195 -101 296 -176 l80 -60 82 82 c80
79 83 81 102 64 18 -17 27 -9 297 264 154 155 280 285 282 289 1 4 -7 16 -18
26 -20 19 -21 18 -88 -48 l-67 -66 -33 27 -33 27 66 65 65 65 -22 17 c-23 17
-24 16 -88 -47 l-65 -64 -34 28 -33 27 57 63 c55 59 57 62 39 76 -10 8 -21 15
-24 15 -3 0 -32 -27 -64 -59 l-59 -60 -31 21 c-17 12 -33 23 -35 25 -3 2 21
30 52 61 l58 58 -27 13 c-26 11 -30 9 -83 -43 l-56 -55 -35 21 c-19 12 -37 23
-39 25 -3 2 19 27 47 56 l53 53 -27 13 c-26 11 -30 9 -79 -39 l-52 -52 -34 17
c-19 10 -36 19 -38 21 -3 3 15 25 40 50 36 37 41 46 29 54 -27 17 -45 11 -85
-30 -44 -45 -50 -46 -102 -25 l-37 16 43 43 42 43 -32 7 c-29 6 -38 2 -74 -34
-38 -38 -44 -40 -71 -30 -16 6 -35 13 -43 16 -11 3 -6 13 18 38 27 28 30 34
16 40 -31 12 -49 6 -81 -25 -32 -31 -33 -31 -84 -19 l-51 12 27 29 28 29 -41
0 c-27 0 -46 -6 -58 -20 -19 -21 -41 -24 -93 -14 -27 6 -30 9 -21 25 9 17 6
19 -24 19 -19 0 -40 -7 -47 -15z"/>
<path d="M7570 15043 l0 -26 25 23 c14 13 25 25 25 27 0 2 -11 3 -25 3 -20 0
-25 -5 -25 -27z"/>
<path d="M7661 14970 c-80 -86 -92 -104 -89 -130 3 -30 6 -28 133 100 l130
130 -41 0 c-39 0 -45 -5 -133 -100z"/>
<path d="M7767 14871 c-189 -190 -197 -200 -197 -237 l0 -39 118 121 c64 66
168 173 231 237 l114 117 -34 0 c-32 0 -52 -17 -232 -199z"/>
<path d="M7866 14766 c-275 -282 -296 -306 -296 -339 0 -35 8 -28 319 286 235
236 317 325 313 339 -2 10 -12 18 -22 18 -10 0 -148 -134 -314 -304z"/>
<path d="M11046 15011 c-49 -50 -57 -63 -54 -90 l3 -32 90 91 90 90 -36 0
c-29 0 -44 -9 -93 -59z"/>
<path d="M14210 15043 l0 -26 25 23 c14 13 25 25 25 27 0 2 -11 3 -25 3 -20 0
-25 -5 -25 -27z"/>
<path d="M14302 14977 c-85 -85 -92 -95 -92 -132 l0 -39 113 115 c153 158 147
149 106 149 -30 0 -46 -12 -127 -93z"/>
<path d="M14402 14870 c-179 -185 -193 -202 -190 -232 3 -32 7 -29 233 200
l230 232 -40 0 c-39 0 -46 -6 -233 -200z"/>
<path d="M14506 14768 c-275 -281 -296 -306 -296 -338 0 -34 8 -27 316 282
309 311 338 347 293 356 -10 2 -126 -110 -313 -300z"/>
<path d="M20667 14992 c-69 -69 -78 -83 -75 -110 3 -31 3 -30 118 78 l115 109
-40 1 c-37 0 -46 -6 -118 -78z"/>
<path d="M20778 14892 c-176 -168 -186 -179 -187 -215 l-1 -39 208 195 c114
107 216 204 226 216 l19 21 -39 0 c-37 0 -50 -10 -226 -178z"/>
<path d="M21005 14898 c-419 -399 -416 -396 -413 -432 3 -33 5 -32 263 212
143 135 296 278 340 318 l80 74 -45 0 c-44 -1 -47 -3 -225 -172z"/>
<path d="M21345 15013 c-33 -32 -150 -143 -260 -248 -110 -104 -256 -244 -325
-309 -69 -66 -136 -130 -150 -143 l-25 -23 40 0 c45 0 -15 -52 550 480 131
124 257 242 279 262 l41 37 -45 0 c-41 1 -50 -4 -105 -56z"/>
<path d="M21370 14828 c-140 -133 -325 -308 -410 -390 l-155 -148 39 0 c46 0
11 -30 455 389 178 168 344 325 370 348 l46 42 -45 0 -45 1 -255 -242z"/>
<path d="M21480 14724 c-201 -190 -385 -365 -410 -390 l-45 -44 42 0 c42 0 47
4 425 361 211 199 396 374 413 390 l30 29 -45 0 -45 -1 -365 -345z"/>
<path d="M21899 14913 c-91 -87 -274 -261 -407 -387 -133 -126 -242 -230 -242
-232 0 -2 18 -4 40 -4 39 0 51 10 387 328 192 180 377 355 413 389 l65 63 -45
0 c-46 0 -47 -1 -211 -157z"/>
<path d="M11141 14905 c-140 -145 -151 -158 -151 -193 l1 -37 180 183 c99 101
177 187 174 193 -4 5 -17 9 -29 9 -17 0 -65 -43 -175 -155z"/>
<path d="M11233 14791 c-230 -236 -243 -251 -243 -287 0 -38 0 -38 274 242
275 280 283 291 226 293 -8 0 -124 -111 -257 -248z"/>
<path d="M11320 14673 c-179 -184 -326 -339 -328 -344 -2 -5 9 -9 25 -9 24 0
81 53 367 339 l338 338 -32 7 c-18 3 -35 6 -39 5 -3 0 -152 -152 -331 -336z"/>
<path d="M22148 14941 c-76 -71 -78 -74 -78 -119 l0 -47 81 81 c76 76 80 83
77 119 l-3 38 -77 -72z"/>
<path d="M11497 14646 c-174 -178 -317 -327 -317 -330 0 -3 15 -6 33 -6 29 0
53 21 232 203 358 362 429 436 424 441 -2 2 -15 7 -29 11 -23 5 -57 -26 -343
-319z"/>
<path d="M8106 14801 c-124 -124 -138 -142 -132 -165 3 -14 10 -26 15 -26 4 0
69 63 144 141 123 128 135 143 127 165 -5 13 -11 24 -12 24 -2 0 -66 -63 -142
-139z"/>
<path d="M14739 14797 c-123 -129 -135 -144 -126 -165 6 -12 13 -21 16 -20 3
2 67 66 142 143 124 127 135 142 126 163 -5 12 -13 22 -16 22 -3 0 -67 -65
-142 -143z"/>
<path d="M11665 14609 c-165 -170 -299 -312 -298 -316 1 -5 12 -10 25 -13 19
-5 67 39 323 298 165 167 301 307 303 311 2 6 -44 33 -51 30 -1 -1 -137 -140
-302 -310z"/>
<path d="M11806 14545 l-297 -305 27 -12 c27 -13 30 -10 326 292 289 294 298
304 276 317 -13 7 -25 12 -28 13 -3 0 -140 -137 -304 -305z"/>
<path d="M8166 14654 c-130 -137 -138 -147 -127 -170 11 -24 14 -21 148 117
134 138 151 165 125 191 -4 4 -69 -58 -146 -138z"/>
<path d="M14845 14697 c-179 -182 -178 -182 -169 -211 9 -25 13 -22 153 118
141 141 143 144 129 170 l-13 26 -100 -103z"/>
<path d="M22142 14727 c-69 -69 -73 -76 -70 -113 l3 -39 78 74 c70 67 77 78
77 113 0 21 -3 38 -8 38 -4 0 -40 -33 -80 -73z"/>
<path d="M12019 14552 c-409 -414 -391 -394 -371 -420 l18 -23 307 315 c304
311 307 314 283 329 -22 15 -27 11 -237 -201z"/>
<path d="M12023 14351 c-302 -307 -313 -320 -307 -350 4 -18 10 -30 14 -29 19
8 640 648 640 660 0 14 -19 38 -29 37 -4 0 -147 -143 -318 -318z"/>
<path d="M8250 14533 c-166 -169 -164 -167 -150 -193 12 -22 18 -17 151 116
76 76 139 144 139 149 0 6 -6 19 -12 28 -12 15 -26 4 -128 -100z"/>
<path d="M14867 14512 c-125 -125 -138 -141 -132 -165 4 -15 10 -27 14 -27 3
0 68 62 144 138 131 132 137 139 128 165 -6 15 -12 27 -13 27 -2 0 -65 -62
-141 -138z"/>
<path d="M7742 14430 c-152 -158 -172 -182 -172 -212 0 -32 4 -29 158 125 138
138 161 165 175 210 9 28 15 52 14 54 -2 1 -80 -78 -175 -177z"/>
<path d="M14382 14431 c-152 -159 -172 -183 -172 -212 0 -33 4 -30 155 121
139 139 157 160 174 212 11 32 18 58 17 58 -1 0 -80 -81 -174 -179z"/>
<path d="M22147 14522 c-73 -74 -78 -81 -75 -116 l3 -38 78 74 c77 72 79 74
75 116 l-3 43 -78 -79z"/>
<path d="M12087 14206 c-324 -331 -337 -346 -337 -382 l0 -39 166 165 c91 91
251 254 355 362 171 177 189 199 179 217 -6 12 -14 21 -19 21 -4 0 -159 -155
-344 -344z"/>
<path d="M8287 14364 c-135 -137 -138 -141 -126 -168 l13 -27 138 138 c76 76
138 145 138 153 0 9 -6 23 -12 31 -11 12 -35 -8 -151 -127z"/>
<path d="M14926 14366 c-132 -140 -136 -145 -125 -173 l10 -28 140 143 c119
121 139 146 134 165 -4 12 -11 26 -15 30 -4 4 -68 -57 -144 -137z"/>
<path d="M12444 14365 c-27 -30 -196 -204 -375 -387 -311 -317 -326 -335 -332
-377 l-5 -44 60 59 c33 32 212 215 399 406 330 336 339 347 328 372 -7 14 -15
26 -19 26 -4 0 -29 -25 -56 -55z"/>
<path d="M21520 14343 l-55 -58 58 55 c53 50 62 60 54 60 -1 0 -27 -26 -57
-57z"/>
<path d="M22175 14341 l-49 -51 47 0 c53 0 60 8 55 64 l-3 37 -50 -50z"/>
<path d="M8348 14218 c-122 -129 -134 -145 -125 -165 6 -13 13 -23 17 -23 14
0 270 270 270 284 0 21 -11 46 -20 46 -4 0 -68 -64 -142 -142z"/>
<path d="M14987 14221 c-119 -122 -135 -144 -128 -163 4 -12 12 -23 17 -25 11
-4 274 270 274 284 0 5 -6 17 -13 27 -12 16 -26 4 -150 -123z"/>
<path d="M7688 14165 c-103 -107 -118 -126 -118 -156 l0 -34 99 99 c79 78 104
110 120 154 12 30 20 56 19 57 -2 1 -56 -53 -120 -120z"/>
<path d="M14328 14166 c-102 -107 -118 -129 -118 -158 0 -33 0 -32 100 67 85
85 102 108 119 157 11 32 19 58 18 58 -1 0 -55 -56 -119 -124z"/>
<path d="M12110 13814 c-1131 -1158 -1120 -1146 -1120 -1184 0 -34 8 -28 288
255 158 160 516 522 795 806 489 499 507 518 501 548 -4 17 -9 31 -13 31 -3
-1 -206 -206 -451 -456z"/>
<path d="M8416 14082 c-132 -133 -138 -141 -131 -171 3 -17 10 -31 13 -31 4 0
68 64 143 143 132 138 136 144 125 170 l-11 28 -139 -139z"/>
<path d="M15048 14073 c-131 -133 -135 -139 -126 -167 l10 -28 143 142 c133
132 142 145 133 166 -6 13 -14 24 -17 24 -4 0 -68 -62 -143 -137z"/>
<path d="M12429 13931 c-90 -93 -420 -432 -733 -753 -313 -321 -601 -615 -638
-654 -61 -62 -69 -75 -66 -103 3 -32 32 -3 808 785 824 837 837 851 802 886
-6 6 -72 -56 -173 -161z"/>
<path d="M8477 13932 c-125 -125 -138 -141 -132 -165 4 -15 10 -27 14 -27 3 0
68 62 144 138 131 132 137 139 128 165 -6 15 -12 27 -13 27 -2 0 -65 -62 -141
-138z"/>
<path d="M15111 13929 c-116 -121 -132 -142 -127 -164 4 -14 10 -25 14 -25 4
0 69 62 145 138 134 135 138 139 126 165 -7 15 -15 27 -18 26 -3 0 -66 -63
-140 -140z"/>
<path d="M14266 13896 c-44 -50 -56 -71 -56 -97 l0 -33 43 42 c29 28 49 60 60
94 9 29 15 53 13 55 -2 2 -29 -25 -60 -61z"/>
<path d="M7627 13892 c-47 -48 -57 -64 -57 -92 l0 -34 45 44 c26 26 51 62 60
88 8 25 14 47 12 48 -2 2 -29 -22 -60 -54z"/>
<path d="M8537 13785 c-132 -138 -137 -144 -127 -171 l11 -28 142 142 141 141
-14 30 -15 30 -138 -144z"/>
<path d="M15220 13833 c-190 -196 -185 -189 -171 -219 l12 -27 30 29 c17 16
79 81 139 144 104 111 107 116 96 143 l-11 28 -95 -98z"/>
<path d="M12219 13508 c-910 -928 -1189 -1217 -1189 -1231 0 -58 29 -31 470
416 244 249 598 608 787 799 321 325 343 349 343 383 0 19 -4 35 -8 35 -5 0
-186 -181 -403 -402z"/>
<path d="M8598 13641 c-137 -141 -137 -141 -126 -173 l11 -32 139 144 c76 80
138 150 138 156 0 5 -6 18 -13 28 -12 16 -26 5 -149 -123z"/>
<path d="M15236 13641 c-139 -139 -139 -139 -127 -169 l13 -30 136 140 c133
137 150 164 124 190 -4 4 -70 -55 -146 -131z"/>
<path d="M12361 13446 c-140 -143 -477 -489 -750 -769 -273 -279 -497 -513
-499 -521 -2 -7 4 -18 12 -25 14 -12 154 126 991 979 154 157 332 339 397 405
108 110 118 123 118 158 0 20 -3 37 -7 36 -5 -1 -122 -119 -262 -263z"/>
<path d="M8658 13493 c-129 -131 -135 -139 -126 -165 5 -16 13 -27 16 -27 4 1
67 64 141 140 118 122 133 140 127 163 -3 14 -10 26 -14 26 -4 0 -69 -62 -144
-137z"/>
<path d="M15297 13492 c-135 -136 -138 -139 -126 -166 l13 -27 138 138 c76 76
138 143 138 148 0 6 -6 19 -12 28 -12 15 -28 2 -151 -121z"/>
<path d="M8723 13351 c-73 -75 -133 -143 -133 -151 0 -8 5 -22 10 -30 8 -12
37 12 148 124 136 135 139 139 129 167 -6 16 -14 28 -17 28 -3 -1 -65 -63
-137 -138z"/>
<path d="M12550 13434 c-30 -33 -329 -340 -665 -684 -750 -767 -703 -716 -682
-738 21 -20 -14 -54 805 781 587 598 609 623 600 679 -2 17 -12 11 -58 -38z"/>
<path d="M15359 13348 c-131 -138 -135 -144 -124 -171 l11 -27 137 139 c75 76
137 145 137 153 0 8 -6 22 -13 32 -12 16 -26 3 -148 -126z"/>
<path d="M20590 13428 l0 -42 40 39 c22 21 40 40 40 42 0 2 -18 3 -40 3 l-40
0 0 -42z"/>
<path d="M20702 13360 c-105 -102 -113 -112 -110 -144 l3 -34 150 143 150 144
-40 0 c-37 0 -47 -7 -153 -109z"/>
<path d="M20900 13340 l-135 -129 39 -1 c42 0 44 1 228 177 l87 83 -42 0 c-40
-1 -48 -7 -177 -130z"/>
<path d="M21120 13340 l-135 -129 42 -1 c40 0 48 5 165 116 68 64 130 123 138
130 12 12 8 14 -30 14 -44 0 -48 -4 -180 -130z"/>
<path d="M21335 13335 l-140 -134 42 -1 c44 0 32 -10 308 251 19 19 19 19 -25
19 -44 0 -48 -3 -185 -135z"/>
<path d="M21555 13335 l-140 -134 42 -1 c43 0 64 17 303 246 l25 24 -45 0
c-44 -1 -48 -4 -185 -135z"/>
<path d="M21775 13336 l-140 -133 39 -5 c37 -4 42 -1 155 105 64 60 129 122
146 138 l30 29 -45 0 c-44 -1 -48 -4 -185 -134z"/>
<path d="M21857 13206 c-150 -144 -157 -153 -157 -190 l0 -38 68 61 c37 33
109 100 160 148 92 86 93 89 90 129 l-3 41 -158 -151z"/>
<path d="M8850 13272 c-219 -226 -205 -208 -191 -238 l12 -27 90 89 c50 49
112 114 138 144 44 51 47 57 37 82 l-12 28 -74 -78z"/>
<path d="M15419 13203 c-130 -132 -136 -139 -126 -165 6 -16 13 -28 17 -28 3
0 67 64 141 143 122 128 135 144 126 165 -6 12 -13 22 -16 22 -4 0 -67 -62
-142 -137z"/>
<path d="M12120 12783 c-918 -939 -852 -868 -832 -893 l18 -22 305 312 c167
172 303 315 302 318 -1 4 -4 14 -8 23 -5 12 6 21 47 38 47 19 87 56 306 280
211 217 255 267 272 311 11 29 19 56 18 60 -2 4 -194 -188 -428 -427z"/>
<path d="M8845 13060 l-139 -139 15 -30 14 -30 138 144 c134 140 138 145 125
170 l-13 25 -140 -140z"/>
<path d="M15486 13061 c-124 -124 -138 -142 -132 -165 3 -14 10 -26 14 -26 4
0 69 62 144 138 133 134 136 138 125 165 l-12 28 -139 -140z"/>
<path d="M11299 13168 c-27 -7 -68 -43 -173 -153 -122 -129 -137 -148 -134
-175 3 -29 10 -24 188 155 102 102 178 185 170 184 -8 -1 -31 -5 -51 -11z"/>
<path d="M11074 13143 c-45 -6 -86 -52 -82 -92 l3 -32 65 66 c35 36 60 64 55
63 -6 0 -24 -3 -41 -5z"/>
<path d="M21857 12996 c-151 -144 -158 -153 -157 -190 l0 -38 101 93 c56 52
128 119 161 149 57 52 60 57 56 96 l-3 42 -158 -152z"/>
<path d="M5291 13045 l-60 -65 -126 0 -125 0 0 -542 0 -543 -63 -66 c-56 -60
-70 -69 -142 -93 -44 -14 -84 -26 -90 -26 -5 0 28 38 74 84 l83 83 -49 -7
c-44 -7 -55 -15 -128 -92 -44 -47 -89 -89 -100 -95 -11 -6 -47 -14 -80 -18
l-60 -7 90 94 90 93 -34 3 c-31 3 -42 -4 -135 -97 l-101 -101 -65 0 -65 0 99
99 98 98 -32 7 c-31 6 -38 1 -132 -99 -97 -102 -101 -105 -143 -105 -24 0 -54
4 -67 9 -13 5 -42 11 -65 14 -57 8 -92 18 -122 33 -14 8 -33 14 -41 14 -24 0
-168 78 -240 129 -35 25 -95 74 -131 109 l-67 62 -204 -207 c-112 -115 -252
-258 -311 -318 l-107 -111 43 -40 c237 -226 577 -407 907 -483 436 -101 997
-67 1409 85 190 71 390 182 541 302 36 29 158 145 273 259 l207 208 0 45 0 45
-110 -110 -110 -110 0 60 0 60 110 110 c107 107 110 111 110 155 l0 45 -110
-110 -110 -110 0 60 0 60 110 110 c101 101 110 113 110 147 0 21 -4 38 -9 38
-5 0 -55 -48 -110 -107 l-101 -107 0 63 0 64 110 112 c100 101 110 114 110
148 0 20 -3 37 -7 37 -5 0 -54 -48 -110 -107 l-102 -108 -1 59 0 58 110 118
c101 108 110 121 110 156 l0 39 -110 -110 -110 -110 0 59 0 59 110 113 c105
109 110 116 110 156 l0 43 -110 -110 -110 -110 0 60 0 59 110 111 c106 108
110 113 110 156 l0 44 -110 -110 -110 -110 0 60 0 60 77 77 78 78 -47 0 c-45
0 -49 -3 -104 -65 l-58 -65 -59 0 -60 0 59 63 59 62 -39 3 c-36 3 -44 -1 -105
-62 l-67 -66 -59 0 -59 0 64 65 64 65 -40 0 c-36 0 -46 -7 -104 -65 l-64 -65
-59 0 -59 0 57 65 57 65 -40 0 c-36 0 -45 -6 -101 -65z"/>
<path d="M18441 13045 l-63 -65 -129 0 -129 0 0 -548 0 -549 -62 -60 c-53 -51
-75 -64 -143 -86 -100 -33 -108 -33 -69 1 17 15 54 52 83 83 l52 57 -47 -9
c-41 -8 -56 -19 -130 -98 -87 -92 -91 -94 -189 -107 l-50 -6 95 96 95 96 -40
0 c-38 0 -47 -7 -140 -100 l-100 -100 -65 0 -65 0 99 99 c97 97 98 98 69 104
-25 5 -39 -5 -133 -99 -97 -96 -108 -104 -144 -104 -21 0 -55 4 -75 9 -20 5
-62 15 -94 21 -32 6 -70 18 -85 26 -15 8 -34 14 -42 14 -24 0 -168 78 -240
129 -35 25 -95 74 -131 109 l-67 62 -204 -207 c-112 -115 -252 -258 -311 -318
l-107 -111 43 -40 c23 -23 71 -65 107 -94 36 -29 64 -59 62 -67 -1 -7 3 -24
11 -38 13 -26 13 -26 31 -6 17 19 19 18 99 -32 187 -116 432 -213 642 -256
187 -37 268 -45 495 -44 389 0 676 54 974 182 262 113 391 207 684 495 l232
230 0 45 -1 46 -109 -112 -110 -113 0 63 0 62 110 110 c108 108 110 110 110
155 l-1 45 -109 -115 -110 -115 0 60 0 60 110 117 c98 103 110 120 110 152 0
20 -2 36 -4 36 -3 0 -52 -48 -110 -107 l-106 -108 0 58 0 59 110 116 c102 108
110 120 110 157 l0 40 -110 -110 -110 -110 0 60 0 60 110 110 c107 107 110
111 110 155 l0 45 -110 -110 -110 -110 0 60 0 60 110 110 c107 107 110 111
110 155 l0 45 -110 -110 -110 -110 0 60 0 60 110 110 c108 108 110 111 110
155 l-1 45 -109 -112 -110 -113 0 62 0 63 77 77 78 78 -41 0 c-36 0 -46 -7
-104 -65 l-64 -65 -60 0 -60 0 64 65 64 65 -46 0 c-45 0 -49 -3 -105 -65 l-58
-65 -65 0 -64 0 64 65 64 65 -40 0 c-36 0 -46 -7 -104 -65 l-64 -65 -60 0 -60
0 64 65 64 65 -40 0 c-37 0 -47 -6 -103 -65z"/>
<path d="M8907 12912 c-135 -136 -138 -139 -126 -166 l13 -27 138 138 c76 76
138 143 138 148 0 6 -6 19 -12 28 -12 15 -28 2 -151 -121z"/>
<path d="M15541 12909 c-129 -135 -133 -141 -122 -166 l12 -27 140 140 c134
134 140 141 130 167 -6 15 -14 27 -18 27 -5 0 -68 -64 -142 -141z"/>
<path d="M21900 12829 l-115 -109 45 1 c42 0 51 5 118 68 70 65 73 69 70 108
l-3 40 -115 -108z"/>
<path d="M8969 12768 c-130 -138 -135 -144 -124 -170 l11 -27 137 137 c75 75
137 144 137 153 0 8 -6 23 -13 32 -11 16 -27 2 -148 -125z"/>
<path d="M15635 12798 c-174 -178 -169 -171 -153 -202 l14 -27 138 143 c136
141 137 143 124 171 l-13 27 -110 -112z"/>
<path d="M9049 12643 c-151 -155 -151 -155 -143 -187 3 -14 10 -26 14 -26 4 0
67 63 139 139 116 123 131 142 125 165 -3 14 -9 26 -13 26 -3 0 -58 -53 -122
-117z"/>
<path d="M15666 12621 c-131 -131 -137 -140 -126 -162 7 -13 14 -25 15 -27 4
-5 270 269 273 281 1 7 -3 20 -10 30 -12 16 -27 3 -152 -122z"/>
<path d="M7570 12739 c0 -5 5 -7 10 -4 6 3 10 8 10 11 0 2 -4 4 -10 4 -5 0
-10 -5 -10 -11z"/>
<path d="M7652 12667 c-74 -74 -83 -88 -80 -116 3 -32 3 -32 118 84 l115 115
-35 0 c-31 0 -46 -11 -118 -83z"/>
<path d="M14210 12739 c0 -5 5 -7 10 -4 6 3 10 8 10 11 0 2 -4 4 -10 4 -5 0
-10 -5 -10 -11z"/>
<path d="M14286 12668 c-62 -68 -76 -89 -76 -115 0 -18 1 -33 3 -33 1 0 54 52
117 115 l113 115 -40 0 c-39 0 -46 -5 -117 -82z"/>
<path d="M7740 12553 l-133 -138 33 -3 c30 -3 43 6 147 110 113 112 123 129
93 161 -4 4 -67 -54 -140 -130z"/>
<path d="M14375 12550 c-138 -138 -139 -140 -106 -140 37 0 79 35 207 170 56
59 61 68 50 88 -11 21 -18 15 -151 -118z"/>
<path d="M9096 12481 c-124 -124 -137 -140 -131 -164 4 -15 10 -27 14 -27 3 0
68 62 142 138 133 133 136 138 125 164 l-12 27 -138 -138z"/>
<path d="M15728 12473 c-124 -126 -135 -140 -125 -160 5 -13 13 -23 16 -23 4
0 66 60 140 134 119 120 133 137 127 160 -3 14 -10 26 -14 26 -4 0 -69 -62
-144 -137z"/>
<path d="M14511 12484 l-63 -69 33 -3 c27 -3 39 4 75 40 40 41 42 45 31 72
l-13 29 -63 -69z"/>
<path d="M7870 12475 l-64 -65 35 0 c28 0 43 9 78 44 38 38 42 46 32 65 -7 11
-13 21 -14 21 -1 0 -32 -29 -67 -65z"/>
<path d="M9151 12329 c-130 -135 -134 -140 -122 -166 l12 -27 140 140 c137
137 140 141 128 167 -7 15 -15 27 -18 26 -3 -1 -66 -64 -140 -140z"/>
<path d="M15793 12334 c-100 -107 -128 -142 -126 -161 1 -14 5 -28 8 -31 9 -9
275 261 275 280 0 23 -11 48 -20 48 -5 0 -66 -61 -137 -136z"/>
<path d="M11665 12109 c-165 -170 -301 -314 -303 -322 -2 -8 4 -19 12 -26 12
-10 64 38 318 294 167 169 304 312 306 319 1 7 -5 19 -15 27 -17 14 -40 -7
-318 -292z"/>
<path d="M9265 12238 c-196 -202 -189 -192 -173 -222 l14 -27 138 142 c138
142 138 142 125 171 l-14 28 -90 -92z"/>
<path d="M15858 12193 c-76 -76 -138 -141 -138 -145 0 -4 5 -19 10 -34 l11
-28 70 70 c39 38 101 103 139 144 64 71 67 77 56 103 l-11 28 -137 -138z"/>
<path d="M11966 12211 l-89 -89 -18 21 c-18 22 -18 22 -343 -303 -180 -179
-326 -328 -326 -332 0 -5 453 -664 465 -676 4 -4 1148 -32 1152 -28 2 2 -38
61 -88 132 -51 71 -103 146 -117 167 l-25 38 83 84 c46 47 80 88 76 92 -4 4
-43 -29 -86 -74 -44 -46 -81 -83 -83 -83 -3 0 -21 22 -40 49 l-35 49 85 91
c46 50 81 91 76 91 -5 0 -44 -36 -88 -80 -44 -44 -82 -80 -86 -80 -3 0 -18 18
-33 41 -35 52 -30 67 57 156 39 40 67 76 63 80 -3 4 -44 -30 -90 -76 l-83 -83
-26 34 -27 33 87 87 86 87 -17 25 -17 26 -84 -87 -84 -88 -25 30 c-14 17 -25
35 -26 40 0 6 38 48 84 94 83 83 84 84 69 108 l-16 24 -87 -86 -87 -87 -26 33
-25 33 84 90 c46 50 84 93 84 96 -1 3 -7 14 -15 25 -15 18 -19 16 -103 -68
l-88 -87 -22 29 c-12 17 -22 34 -22 38 0 4 38 46 85 93 84 84 85 86 69 109
l-17 23 -88 -88 c-49 -48 -90 -86 -92 -83 -2 2 -14 19 -27 37 l-23 34 88 88
c78 79 86 90 76 109 -7 11 -15 21 -19 21 -4 0 -45 -38 -92 -85 l-84 -85 -23
28 c-27 32 -28 45 -8 62 9 7 46 47 84 89 68 75 69 77 53 99 l-17 22 -89 -89z"/>
<path d="M9277 12042 c-135 -135 -138 -139 -126 -165 7 -15 16 -26 19 -25 14
6 270 276 270 285 0 5 -6 17 -12 26 -12 15 -28 2 -151 -121z"/>
<path d="M15912 12040 c-126 -131 -132 -139 -122 -165 6 -14 14 -25 19 -23 4
2 67 64 140 140 126 131 131 137 120 162 -7 14 -15 26 -18 25 -3 0 -66 -63
-139 -139z"/>
<path d="M9339 11897 c-139 -146 -143 -151 -112 -187 7 -8 273 265 273 280 0
9 -6 24 -12 33 -12 15 -29 0 -149 -126z"/>
<path d="M15979 11897 c-132 -138 -136 -144 -125 -170 l11 -28 139 140 140
140 -15 31 -14 31 -136 -144z"/>
<path d="M20648 11849 c-50 -44 -58 -56 -58 -86 0 -19 4 -33 9 -31 4 2 48 40
96 86 l88 82 -39 0 c-33 0 -49 -9 -96 -51z"/>
<path d="M20760 11748 l-159 -153 35 -3 c39 -4 21 -18 262 210 l104 98 -41 0
c-40 0 -48 -6 -201 -152z"/>
<path d="M20975 11745 l-160 -155 39 0 c41 0 38 -3 310 252 l61 57 -45 0 c-44
0 -47 -2 -205 -154z"/>
<path d="M21195 11745 l-160 -154 41 -1 c39 0 48 6 165 116 68 64 142 134 164
155 l40 39 -45 0 c-44 -1 -48 -3 -205 -155z"/>
<path d="M21415 11745 l-160 -154 42 -1 c40 0 48 6 160 111 65 61 138 131 163
155 l45 44 -45 0 c-44 -1 -48 -3 -205 -155z"/>
<path d="M21635 11745 l-160 -154 42 -1 c41 0 48 5 203 151 88 84 160 154 160
155 0 2 -19 4 -42 4 -42 -1 -48 -6 -203 -155z"/>
<path d="M21855 11745 l-160 -154 42 -1 c41 0 48 5 197 145 86 80 158 150 161
155 4 6 -12 10 -37 10 -42 -1 -48 -5 -203 -155z"/>
<path d="M22030 11704 c-204 -195 -205 -196 -208 -242 l-3 -47 78 75 c43 42
151 144 241 229 89 84 162 160 162 167 0 9 -12 14 -32 14 -29 -1 -59 -25 -238
-196z"/>
<path d="M4137 11862 c-19 -20 -27 -39 -27 -64 l0 -36 54 56 c37 38 51 59 43
64 -22 14 -43 8 -70 -20z"/>
<path d="M9455 11808 c-198 -205 -190 -194 -176 -224 l12 -28 138 138 c135
135 138 139 128 167 -6 16 -14 29 -17 29 -3 0 -41 -37 -85 -82z"/>
<path d="M16042 11755 c-73 -75 -132 -144 -132 -153 0 -9 5 -24 10 -32 8 -12
36 12 145 120 74 74 135 142 135 150 0 9 -6 24 -13 34 -12 16 -25 5 -145 -119z"/>
<path d="M17282 11867 c-15 -16 -22 -36 -22 -62 l0 -39 55 54 c38 38 51 56 42
62 -22 14 -53 8 -75 -15z"/>
<path d="M9467 11612 c-75 -77 -137 -144 -137 -148 1 -5 6 -19 13 -32 12 -21
17 -18 151 117 115 117 136 142 128 158 -5 10 -11 24 -13 31 -3 8 -63 -46
-142 -126z"/>
<path d="M22160 11619 c-69 -66 -173 -166 -232 -222 -101 -95 -108 -103 -108
-140 l0 -38 25 20 c14 11 122 111 240 222 208 195 215 203 215 240 0 22 -3 39
-7 38 -5 0 -64 -54 -133 -120z"/>
<path d="M9522 11460 c-125 -129 -132 -139 -123 -164 6 -14 14 -26 19 -26 5 0
68 63 140 139 126 133 132 141 121 165 -7 14 -15 25 -18 25 -3 -1 -66 -63
-139 -139z"/>
<path d="M22077 11331 l-218 -206 41 -3 c45 -4 26 -19 313 250 87 81 89 84 85
124 l-3 41 -218 -206z"/>
<path d="M9588 11319 c-131 -138 -135 -144 -125 -172 l10 -29 140 140 141 141
-15 32 -15 31 -136 -143z"/>
<path d="M22185 11224 l-110 -103 45 0 c41 0 51 5 113 62 66 60 68 64 65 104
l-3 41 -110 -104z"/>
<path d="M9689 11214 l-94 -94 45 0 c43 0 50 4 108 63 55 56 62 67 56 90 -3
15 -9 29 -13 32 -4 2 -50 -39 -102 -91z"/>
<path d="M12775 11160 c-25 -25 -33 -40 -24 -40 19 0 84 66 71 73 -5 4 -26
-12 -47 -33z"/>
<path d="M9825 11140 c-18 -20 -17 -20 13 -20 25 0 29 3 25 20 -3 11 -9 20
-13 20 -4 0 -15 -9 -25 -20z"/>
</g>
</svg>
